<?xml version="1.0" standalone="no"?>
<!DOCTYPE svg PUBLIC "-//W3C//DTD SVG 20010904//EN"
 "http://www.w3.org/TR/2001/REC-SVG-20010904/DTD/svg10.dtd">
<svg version="1.0" xmlns="http://www.w3.org/2000/svg"
 width="512.000000pt" height="512.000000pt" viewBox="0 0 512.000000 512.000000"
 preserveAspectRatio="xMidYMid meet">

<g transform="translate(0.000000,512.000000) scale(0.100000,-0.100000)"
fill="#000000" stroke="none">
<path d="M2380 4794 c-539 -49 -1022 -274 -1401 -653 -346 -347 -555 -760
-636 -1256 -24 -153 -24 -497 0 -650 24 -148 70 -327 114 -444 257 -690 831
-1212 1533 -1395 221 -57 327 -70 570 -70 236 0 343 12 554 65 779 195 1407
819 1610 1599 57 221 70 327 70 570 0 243 -13 349 -70 570 -223 858 -945 1507
-1829 1645 -97 15 -425 27 -515 19z m485 -339 c221 -39 396 -97 584 -196 364
-191 642 -475 825 -844 83 -166 121 -274 160 -446 141 -634 -54 -1299 -518
-1765 -463 -463 -1128 -658 -1766 -517 -363 80 -683 255 -946 517 -750 749
-750 1963 0 2712 307 306 689 492 1126 550 131 17 410 11 535 -11z"/>
<path d="M2507 3576 c-49 -18 -64 -32 -88 -77 -18 -36 -19 -63 -19 -409 l0
-370 -372 0 c-367 0 -374 -1 -412 -23 -109 -61 -106 -221 5 -277 36 -19 60
-20 409 -20 l370 0 0 -370 c0 -349 1 -373 20 -409 57 -113 223 -113 280 0 19
36 20 60 20 409 l0 370 370 0 c349 0 373 1 409 20 113 57 113 223 0 280 -36
19 -60 20 -409 20 l-370 0 0 370 c0 349 -1 373 -20 409 -35 69 -121 103 -193
77z"/>
</g>
</svg>
